# xmcd
#
# Track frame offsets: 
#        150
#        13312
#        26830
#        39632
#        52987
#        66302
#        79057
#        92492
#        103697
#        117185
#        130192
#        142710
#        154440
#        168032
#        181310
#        194345
#        206662
#        219052
#        233505
#        247730
#        260737
#        274530
#        287685
#        300492
#        312552
#
# Disc length: 4312 seconds
#
# Revision: 0
# Processed by: cddbd v1.5.1PL0 Copyright (c) Steve Scherf et al.
# Submitted via: ExactAudioCopy v0.95a5
#
DISCID=5610d619
DTITLE=Various Artist - Chicago Blues - Volume 1
DYEAR=1900
DGENRE=
TTITLE0=Alfred Fields - Money Green
TTITLE1=Alfred Fields - Mighty Blue
TTITLE2=Alfred Fields - '29 Blues
TTITLE3=Alfred Fields - I've Retired
TTITLE4=Alfred Fields - In My Prime
TTITLE5=Alfred Fields - Quit Your Jivin'
TTITLE6=Alfred Fields - Spongy Baby
TTITLE7=Alfred Fields - Step Pepper Stepper
TTITLE8=Tony Hollins - Crawlin' King Snake
TTITLE9=Tony Hollins - Married Woman Blues
TTITLE10=Tony Hollins - Big Time Woman
TTITLE11=Tony Hollins - Stamp Blues
TTITLE12=Tony Hollins - Tease Me Over Blues
TTITLE13=Tony Hollins - Cross Cut Saw Blues
TTITLE14=Tony Hollins - Traveling Man Blues
TTITLE15=Tony Hollins - Fishin' Blues
TTITLE16=Tony Hollins - I'll Get a Break
TTITLE17=Tony Hollins - Wine-O-Woman
TTITLE18=Tony Hollins - Crawlin' King Snake
TTITLE19=Johnny Shines - Tennessee Woman Blues
TTITLE20=Johnny Shines - Delta Pine Blues
TTITLE21=Johnny Shines - Ride, Ride Mama
TTITLE22=Johnny Shines - Evil Hearted Woman Blues
TTITLE23=Johnny Shines - Joliet Blues
TTITLE24=Johnny Shines - So Glad I Found You
EXTD=
EXTT0=
EXTT1=
EXTT2=
EXTT3=
EXTT4=
EXTT5=
EXTT6=
EXTT7=
EXTT8=
EXTT9=
EXTT10=
EXTT11=
EXTT12=
EXTT13=
EXTT14=
EXTT15=
EXTT16=
EXTT17=
EXTT18=
EXTT19=
EXTT20=
EXTT21=
EXTT22=
EXTT23=
EXTT24=
PLAYORDER=
